# xmcd
#
# Track frame offsets:
#	150
#	18074
#	35673
#	38947
#	47671
#	58595
#	69069
#	81368
#	90592
#	103291
#	116890
#	133764
#	148713
#	160237
#	171211
#	182535
#	198859
#	209308
#	221032
#	240681
#
# Disc length: 3544 seconds
#
# Revision: 1
# Processed by: cddbd v1.5PL3 Copyright (c) Steve Scherf et al.
# Submitted via: CDmax 2.0
#
DISCID=1e0dd614
DTITLE=St Josephs Maori Girls Choir - Aotearoa
DYEAR=1900
DGENRE=Country
TTITLE0=Po Kare Kare Ana
TTITLE1=Hine E Hine
TTITLE2=Me he Manurere
TTITLE3=Ruana Ruana
TTITLE4=Hoki Hoki
TTITLE5=Hohepa E
TTITLE6=E tu Nei
TTITLE7=Te Ariki
TTITLE8=Po Atarau
TTITLE9=Tiramarama
TTITLE10=Hine
TTITLE11=Ruawharo
TTITLE12=Te Matangi
TTITLE13=E te Atua
TTITLE14=He Wahine
TTITLE15=Te Ho Kinga Mai
TTITLE16=Whakaria Mai
TTITLE17=No Nga Waka
TTITLE18=Rangipukohu Kohu
TTITLE19=Medley
EXTD=
EXTT0=
EXTT1=
EXTT2=
EXTT3=
EXTT4=
EXTT5=
EXTT6=
EXTT7=
EXTT8=
EXTT9=
EXTT10=
EXTT11=
EXTT12=
EXTT13=
EXTT14=
EXTT15=
EXTT16=
EXTT17=
EXTT18=
EXTT19=
PLAYORDER=
